<mxfile host="app.diagrams.net" modified="2024-05-04T09:47:50.411Z" agent="Mozilla/5.0 (Windows NT 10.0; Win64; x64) AppleWebKit/537.36 (KHTML, like Gecko) Chrome/124.0.0.0 Safari/537.36" version="24.0.5" etag="iAbd7HC80UyiIzzzpe56" type="github">
  <diagram name="Page-1" id="D8dRsuLCY_XxZ5YNvCCW">
    <mxGraphModel>
      <root>
        <mxCell id="0" />
        <mxCell id="1" parent="0" />
      </root>
    </mxGraphModel>
  </diagram>
</mxfile>
